<?xml version="1.0" encoding="UTF-8"?>
<svg width="100px" height="100px" viewBox="0 0 100 100" version="1.1" xmlns="http://www.w3.org/2000/svg" xmlns:xlink="http://www.w3.org/1999/xlink">
    <!-- Generator: Sketch 43.2 (39069) - http://www.bohemiancoding.com/sketch -->
    <title>client-logo-appear-coolgrey3</title>
    <desc>Created with Sketch.</desc>
    <defs></defs>
    <g id="Website" stroke="none" stroke-width="1" fill="none" fill-rule="evenodd">
        <g id="client-logo-appear-coolgrey3">
            <g id="Group-2" transform="translate(5.000000, 12.000000)">
                <text id="appear.in" font-family="JosefinSans-Bold, Josefin Sans" font-size="24.144" font-weight="bold" fill="#B6C1D1">
                    <tspan x="0" y="70.047619">appear.in</tspan>
                </text>
                <g id="Group" transform="translate(14.400000, 0.000000)">
                    <rect id="Rectangle-11" fill="#A6B0BF" x="4.28571429" y="6.48412698" width="42.8571429" height="30.2592593" rx="4.2372"></rect>
                    <rect id="Rectangle" fill="#FF2960" x="4.28571429" y="17.2910053" width="32.1428571" height="19.452381"></rect>
                    <path d="M0,15.04616 C0,12.7048694 1.8968167,10.8068783 4.24627487,10.8068783 L38.610868,10.8068783 C40.9560208,10.8068783 42.8571429,12.6997305 42.8571429,15.04616 L42.8571429,36.8268559 C42.8571429,39.1681465 40.9651845,41.0661376 38.6100325,41.0661376 L28.8285508,41.0661376 L28.8285508,49.7807754 L14.5036055,41.0661376 L4.23403199,41.0661376 C1.89564069,41.0661376 0,39.1732854 0,36.8268559 L0,15.04616 Z" id="Rectangle-3" fill="#B6C1D1"></path>
                    <path d="M51.4285714,13.7363732 C51.4285714,13.1559821 51.7840245,12.3863779 52.2454098,11.9981345 L57.9813738,7.17147461 C58.4325013,6.791863 58.7982123,6.949821 58.7982123,7.54107015 L58.7982123,36.6563021 C58.7982123,37.2400357 58.4226189,37.4081688 57.9813738,37.0497667 L52.2454098,32.3907194 C51.7942824,32.0242903 51.4285714,31.2565431 51.4285714,30.6763498 L51.4285714,13.7363732 Z" id="Rectangle-2" fill="#A6B0BF"></path>
                    <text id="a" font-family="JosefinSans-Bold, Josefin Sans" font-size="33.8976" font-weight="bold" fill="#FFFFFF">
                        <tspan x="12.8571429" y="32">a</tspan>
                    </text>
                </g>
            </g>
        </g>
    </g>
</svg>