<?xml version="1.0" encoding="UTF-8"?>
<svg width="100px" height="100px" viewBox="0 0 100 100" version="1.1" xmlns="http://www.w3.org/2000/svg" xmlns:xlink="http://www.w3.org/1999/xlink">
    <!-- Generator: Sketch 41.2 (35397) - http://www.bohemiancoding.com/sketch -->
    <title>linkedin-icon-asset</title>
    <desc>Created with Sketch.</desc>
    <defs></defs>
    <g id="Website" stroke="none" stroke-width="1" fill="none" fill-rule="evenodd">
        <g id="linkedin-icon-asset" fill="#B6C1D1">
            <path d="M94.4976137,5.50079013 C90.8315604,1.83382474 86.4146013,0 81.2501568,0 L18.7498432,0 C13.5853987,0 9.16843961,1.83382474 5.50079013,5.50079013 C1.83382474,9.16843961 0,13.5851707 0,18.7498432 L0,81.2494727 C0,86.4136892 1.83382474,90.8308763 5.50079013,94.4985258 C9.16843961,98.1661753 13.5853987,100 18.7498432,100 L81.2494727,100 C86.4139172,100 90.8308763,98.1661753 94.4969296,94.4985258 C98.164579,90.8308763 99.9984038,86.4139172 99.9984038,81.2494727 L99.9984038,18.7498432 C99.9981758,13.5851707 98.164351,9.16775551 94.4976137,5.50079013 Z M30.4683527,83.7231522 L15.4292568,83.7231522 L15.4292568,38.5408757 L30.4683527,38.5408757 L30.4683527,83.7231522 Z M29.1019914,30.175789 C27.5397515,31.6732682 25.4778958,32.4221217 22.9168804,32.4221217 L22.8512075,32.4221217 C20.377528,32.4221217 18.3708558,31.6732682 16.8295948,30.175789 C15.2881057,28.6783099 14.5178172,26.8230503 14.5178172,24.609554 C14.5178172,22.3527319 15.3104527,20.4860707 16.8941275,19.0100265 C18.4789425,17.5344384 20.5293966,16.7963023 23.046402,16.7963023 C25.5636355,16.7963023 27.5819372,17.5344384 29.1013073,19.0100265 C30.6202213,20.4860707 31.4016833,22.3527319 31.4447812,24.609554 C31.4445531,26.8221382 30.6642313,28.6773978 29.1019914,30.175789 Z M84.5698311,83.7231522 L69.5307351,83.7231522 L69.5307351,59.5701161 C69.5307351,52.7567799 67.0141858,49.3490857 61.9792629,49.3490857 C60.0697319,49.3490857 58.4630259,49.8806258 57.1614254,50.9441621 C55.8582286,52.0070142 54.8820282,53.2983534 54.231912,54.8186356 C53.9274907,55.5989574 53.7760782,56.8139062 53.7760782,58.4627979 L53.7760782,83.7229242 L38.7369823,83.7229242 C38.8671879,56.4666151 38.8671879,41.4051722 38.7369823,38.5404196 L53.7760782,38.5404196 L53.7760782,44.9193569 C56.9381831,39.9754183 61.4283401,37.4983183 67.2529342,37.4983183 C72.4611606,37.4983183 76.6500888,39.2131109 79.8183506,42.6413279 C82.9868403,46.070229 84.5707432,51.1272709 84.5707432,57.8097173 L84.5707432,83.7231522 L84.5698311,83.7231522 Z" id="Shape"></path>
        </g>
    </g>
</svg>