<?xml version="1.0" encoding="UTF-8"?>
<svg width="100px" height="100px" viewBox="0 0 100 100" version="1.1" xmlns="http://www.w3.org/2000/svg" xmlns:xlink="http://www.w3.org/1999/xlink">
    <!-- Generator: Sketch 41.2 (35397) - http://www.bohemiancoding.com/sketch -->
    <title>service-item-pricing-icon-asset</title>
    <desc>Created with Sketch.</desc>
    <defs></defs>
    <g id="Website" stroke="none" stroke-width="1" fill="none" fill-rule="evenodd">
        <g id="service-item-pricing-icon-asset" fill="#2D3D54">
            <g id="Group-10" transform="translate(30.000000, 25.000000)">
                <path d="M38.3650042,46.7909307 L21.5335748,46.7909307 L21.5335748,33.2379416 L24.5227083,35.8160666 C25.0342714,36.2542459 25.7865701,36.1931046 26.217888,35.6734035 C26.6492059,35.1537024 26.589022,34.3894361 26.0774589,33.9512568 L21.1122875,29.6611753 C21.1122875,29.6611753 21.1122875,29.6611753 21.1022569,29.6509851 C21.0922262,29.6407948 21.0721649,29.6306046 21.0621343,29.6204144 C21.042073,29.6102242 21.0320424,29.5898438 21.0119811,29.5796535 C21.0019504,29.5694633 20.9818891,29.5592731 20.9718585,29.5490829 C20.9517972,29.5388927 20.9417665,29.5287024 20.9217052,29.5185122 C20.9116746,29.508322 20.8916133,29.4981318 20.871552,29.4981318 C20.8514907,29.4879416 20.8314294,29.4777514 20.8213987,29.4675611 C20.8013374,29.4573709 20.7913068,29.4573709 20.7712455,29.4471807 C20.7511842,29.4369905 20.7311229,29.4369905 20.7110616,29.4268003 C20.6910003,29.4166101 20.6809696,29.4166101 20.6609083,29.4064198 C20.640847,29.3962296 20.6207857,29.3962296 20.6007244,29.3860394 C20.5806631,29.3860394 20.5706325,29.3758492 20.5505712,29.3758492 C20.5305099,29.3758492 20.5004179,29.365659 20.4803566,29.365659 C20.470326,29.365659 20.4502647,29.365659 20.440234,29.3554688 C20.3599889,29.3452785 20.2897743,29.3452785 20.2095291,29.3554688 C20.1994985,29.3554688 20.1794372,29.3554688 20.1694065,29.365659 C20.1493452,29.365659 20.1192533,29.3758492 20.099192,29.3758492 C20.0791307,29.3758492 20.0691,29.3860394 20.0490387,29.3860394 C20.0289774,29.3860394 20.0089161,29.3962296 19.9888548,29.4064198 C19.9687935,29.4064198 19.9587629,29.4166101 19.9387016,29.4268003 C19.9186403,29.4369905 19.898579,29.4369905 19.8885483,29.4471807 C19.868487,29.4573709 19.8584564,29.4573709 19.8383951,29.4675611 C19.8183338,29.4777514 19.7982725,29.4879416 19.7882419,29.4981318 C19.7681806,29.508322 19.7581499,29.5185122 19.7380886,29.5185122 C19.7180273,29.5287024 19.7079967,29.5388927 19.6879354,29.5490829 C19.6779047,29.5592731 19.6578434,29.5694633 19.6478128,29.5796535 C19.6277515,29.5898438 19.6177208,29.600034 19.5976595,29.6204144 C19.5876289,29.6306046 19.5675676,29.6407948 19.5575369,29.6509851 C19.5575369,29.6509851 19.5575369,29.6509851 19.5475063,29.6611753 L14.5622736,33.9716372 C14.0507105,34.4098166 13.9905266,35.1842731 14.4218445,35.693784 C14.6625801,35.9791101 15.0036222,36.1217731 15.3446643,36.1217731 C15.6154918,36.1217731 15.89635,36.0300611 16.1270549,35.8262568 L19.126219,33.2379416 L19.126219,46.7909307 L2.28475899,46.7909307 C1.62273614,46.7909307 1.08108108,47.3412024 1.08108108,48.0137568 C1.08108108,48.6863111 1.62273614,49.2365829 2.28475899,49.2365829 L38.3650042,49.2365829 C39.027027,49.2365829 39.5686821,48.6863111 39.5686821,48.0137568 C39.5686821,47.3412024 39.0370577,46.7909307 38.3650042,46.7909307 Z" id="Shape"></path>
                <path d="M17.9983282,13.919837 L21.4889941,13.919837 C22.9334076,13.919837 24.1069936,15.1120924 24.1069936,16.5794837 C24.1069936,18.046875 22.9334076,19.2391304 21.4889941,19.2391304 L15.2198384,19.2391304 C14.5578155,19.2391304 14.0161605,19.7894022 14.0161605,20.4619565 C14.0161605,21.1345109 14.5578155,21.6847826 15.2198384,21.6847826 L18.5399833,21.6847826 L18.5399833,24.2119565 C18.5399833,24.8845109 19.0816383,25.4347826 19.7436612,25.4347826 C20.405684,25.4347826 20.9473391,24.8845109 20.9473391,24.2119565 L20.9473391,21.6847826 L21.5190861,21.6847826 L21.549178,21.6847826 C24.2875453,21.6440217 26.5043188,19.3716033 26.5043188,16.5794837 C26.5043188,13.7669837 24.2474227,11.4741848 21.4789635,11.4741848 L17.9882976,11.4741848 C16.5438841,11.4741848 15.3702981,10.2819293 15.3702981,8.81453804 C15.3702981,7.34714674 16.5438841,6.1548913 17.9882976,6.1548913 L24.1571468,6.1548913 C24.8191697,6.1548913 25.3608247,5.60461957 25.3608247,4.93206522 C25.3608247,4.25951087 24.8191697,3.70923913 24.1571468,3.70923913 L20.9473391,3.70923913 L20.9473391,1.22282609 C20.9473391,0.550271739 20.405684,0 19.7436612,0 C19.0816383,0 18.5399833,0.550271739 18.5399833,1.22282609 L18.5399833,3.70923913 L17.9983282,3.70923913 C15.229869,3.70923913 12.972973,6.00203804 12.972973,8.81453804 C12.972973,11.627038 15.229869,13.919837 17.9983282,13.919837 Z" id="Shape"></path>
                <path d="M4.06241293,14.2866848 L6.67038172,14.2866848 C7.5831708,14.2866848 8.32543884,15.0407609 8.32543884,15.9680707 C8.32543884,16.8953804 7.5831708,17.6494565 6.67038172,17.6494565 L1.98606854,17.6494565 C1.3240457,17.6494565 0.782390638,18.1997283 0.782390638,18.8722826 C0.782390638,19.544837 1.3240457,20.0951087 1.98606854,20.0951087 L4.16271942,20.0951087 L4.16271942,21.6745924 C4.16271942,22.3471467 4.70437448,22.8974185 5.36639733,22.8974185 C6.02842017,22.8974185 6.57007523,22.3471467 6.57007523,21.6745924 L6.57007523,20.0951087 L6.70047367,20.0951087 L6.73056562,20.0951087 C8.94733909,20.064538 10.7428253,18.2201087 10.7428253,15.9680707 C10.7428253,13.6956522 8.91724714,11.8410326 6.68041237,11.8410326 L4.07244358,11.8410326 C3.1596545,11.8410326 2.41738646,11.0869565 2.41738646,10.1596467 C2.41738646,9.23233696 3.1596545,8.47826087 4.07244358,8.47826087 L8.67651156,8.47826087 C9.33853441,8.47826087 9.88018947,7.92798913 9.88018947,7.25543478 C9.88018947,6.58288043 9.33853441,6.0326087 8.67651156,6.0326087 L6.58010588,6.0326087 L6.58010588,4.48369565 C6.58010588,3.8111413 6.03845082,3.26086957 5.37642797,3.26086957 C4.71440513,3.26086957 4.17275007,3.8111413 4.17275007,4.48369565 L4.17275007,6.0326087 L4.07244358,6.0326087 C1.82557816,6.0326087 0,7.88722826 0,10.1596467 C1.42544099e-15,12.4422554 1.82557816,14.2866848 4.06241293,14.2866848 Z" id="Shape"></path>
                <path d="M32.170521,14.2866848 L34.7784898,14.2866848 C35.6912789,14.2866848 36.4335469,15.0407609 36.4335469,15.9680707 C36.4335469,16.8953804 35.6912789,17.6494565 34.7784898,17.6494565 L30.084146,17.6494565 C29.4221232,17.6494565 28.8804681,18.1997283 28.8804681,18.8722826 C28.8804681,19.544837 29.4221232,20.0951087 30.084146,20.0951087 L32.2607969,20.0951087 L32.2607969,21.6745924 C32.2607969,22.3471467 32.8024519,22.8974185 33.4644748,22.8974185 C34.1264976,22.8974185 34.6681527,22.3471467 34.6681527,21.6745924 L34.6681527,20.0951087 L34.7985511,20.0951087 L34.8286431,20.0951087 C37.0454166,20.064538 38.8409028,18.2201087 38.8409028,15.9680707 C38.8409028,13.6956522 37.0153246,11.8410326 34.7784898,11.8410326 L32.170521,11.8410326 C31.257732,11.8410326 30.5154639,11.0869565 30.5154639,10.1596467 C30.5154639,9.23233696 31.257732,8.47826087 32.170521,8.47826087 L36.774589,8.47826087 C37.4366119,8.47826087 37.9782669,7.92798913 37.9782669,7.25543478 C37.9782669,6.58288043 37.4366119,6.0326087 36.774589,6.0326087 L34.6781833,6.0326087 L34.6781833,4.48369565 C34.6781833,3.8111413 34.1365283,3.26086957 33.4745054,3.26086957 C32.8124826,3.26086957 32.2708275,3.8111413 32.2708275,4.48369565 L32.2708275,6.0326087 L32.170521,6.0326087 C29.9336863,6.0326087 28.1081081,7.88722826 28.1081081,10.1596467 C28.1081081,12.4422554 29.9236556,14.2866848 32.170521,14.2866848 Z" id="Shape"></path>
            </g>
        </g>
    </g>
</svg>