<?xml version="1.0" encoding="UTF-8"?>
<svg width="100px" height="100px" viewBox="0 0 100 100" version="1.1" xmlns="http://www.w3.org/2000/svg" xmlns:xlink="http://www.w3.org/1999/xlink">
    <!-- Generator: Sketch 41.2 (35397) - http://www.bohemiancoding.com/sketch -->
    <title>service-item-conversion-icon-asset</title>
    <desc>Created with Sketch.</desc>
    <defs></defs>
    <g id="Website" stroke="none" stroke-width="1" fill="none" fill-rule="evenodd">
        <g id="service-item-conversion-icon-asset" fill="#2D3D54">
            <path d="M74.8553223,27.8673842 C74.6051814,27.3377978 74.0711567,27 73.4845984,27 L26.5154812,27 C25.9289229,27 25.3951003,27.3377978 25.1447572,27.8673842 C24.8946163,28.3969706 24.9730126,29.0229553 25.3462036,29.4746969 L43.4018143,51.3325369 L43.4018143,71.4874723 C43.4018143,72.0108069 43.6727667,72.4968325 44.1180903,72.7727175 C44.3621697,72.9237686 44.6391837,73 44.9172079,73 C45.1469415,73 45.3774834,72.9477674 45.5900426,72.8426971 L55.734693,67.8241303 C56.2501288,67.569219 56.5762415,67.0450777 56.5770497,66.4709222 L56.5968509,51.3331419 L74.6534719,29.4744953 C75.0268649,29.0229553 75.1054633,28.3967689 74.8553223,27.8673842 Z M53.91319,49.8270677 C53.689922,50.0973059 53.5674782,50.4367172 53.5670741,50.7872202 L53.5476771,65.5299283 L46.4328034,69.0496811 L46.4328034,50.7892369 C46.4328034,50.4381288 46.3105617,50.097911 46.0866876,49.8270677 L29.7289237,30.0248537 L70.2709538,30.0248537 L53.91319,49.8270677 Z" id="Shape"></path>
        </g>
    </g>
</svg>